# xmcd CD database file
#
# Track frame offsets:
#	150
#	17525
#	39375
#	58580
#	77977
#	94642
#	110042
#	126320
#	149082
#	176555
#	196012
#	216472
#	233835
#	247792
#	267757
#
# Disc length: 3921 seconds
#
# Revision: 0
# Processed by: cddbd v1.5PL3 Copyright (c) Steve Scherf et al.
# Submitted via: CDex 1.51
#
DISCID=d10f4f0f
DTITLE=Various Artist - Forever and ever 〜永遠のアイドル〜 [CD2]
DYEAR=1998
DGENRE=Pop
TTITLE0=石田ひかり/エメラルドの砂
TTITLE1=五十嵐いづみ/スカイバレー(Special Wind Mix)
TTITLE2=安永亜衣/if
TTITLE3=中原香織/銀河鉄道の夜
TTITLE4=宮崎純/新・ロマンチック
TTITLE5=岡本南/風とかくれんぼ
TTITLE6=エンジェルス/恋はブラック
TTITLE7=佐藤忍/ちょっとだけMY LOVE
TTITLE8=黒沢律子/純哀(Ritsuko Words Remix Version)
TTITLE9=裕木奈江/硝子のピノキオ
TTITLE10=中村あずさ/ふっ・・・
TTITLE11=かとうれいこ/Listen to Your Heart
TTITLE12=KEY WEST CLUB/お誂え向きのDestiny
TTITLE13=持田かおり/もう一度
TTITLE14=持田かおり/泣いていいよ
EXTD=YEAR: 1998
EXTT0=
EXTT1=
EXTT2=
EXTT3=
EXTT4=
EXTT5=
EXTT6=
EXTT7=
EXTT8=
EXTT9=
EXTT10=
EXTT11=
EXTT12=
EXTT13=
EXTT14=
PLAYORDER=
